<svg width="131" height="129" viewBox="0 0 131 129" fill="none" xmlns="http://www.w3.org/2000/svg">
<path d="M130.058 0.0452042H115.558V64.5452C111.558 98.5452 94.5575 111.045 72.5575 114.045H43.5575V59.0452C48.0575 48.5452 49.5575 47.0452 59.0575 43.5452H72.0575C72.0575 43.5452 77.0575 41.5452 77.0575 36.0452C77.0575 30.5452 72.5575 29.0452 72.5575 29.0452H59.0575C43.5575 30.5452 29.5575 43.0452 29.0575 59.0452V128.545H72.5575C106.058 127.045 128.058 104.045 130.058 64.5452V0.0452042Z" fill="url(#paint0_linear_1_6)"/>
<path d="M0.115093 128.59L14.6151 128.577L14.5573 64.0774C18.5269 30.0739 35.5157 17.5586 57.513 14.5389L86.5129 14.513L86.5622 69.5129C82.0716 80.017 80.573 81.5183 71.0761 85.0268L58.0761 85.0385C58.0761 85.0385 53.0779 87.0429 53.0828 92.5429C53.0878 98.0429 57.5891 99.5389 57.5891 99.5389L71.0891 99.5268C86.5877 98.0129 100.577 85.5004 101.062 69.5L101 -1.50502e-05L57.5 0.0389488C24.0013 1.56895 2.02194 24.5887 0.0573194 64.0904L0.115093 128.59Z" fill="url(#paint1_linear_1_6)"/>
<defs>
<linearGradient id="paint0_linear_1_6" x1="29" y1="129" x2="100" y2="-4.09594e-06" gradientUnits="userSpaceOnUse">
<stop stop-color="#1B3A32"/>
<stop offset="1" stop-color="#209F88"/>
</linearGradient>
<linearGradient id="paint1_linear_1_6" x1="101" y1="-6.81638e-06" x2="29" y2="129" gradientUnits="userSpaceOnUse">
<stop stop-color="#209F88"/>
<stop offset="1" stop-color="#1B3A32"/>
</linearGradient>
</defs>
</svg>
